<svg width="32" height="32" viewBox="0 0 32 32" fill="none" xmlns="http://www.w3.org/2000/svg">
<rect width="32" height="32" fill="black"/>
<g clip-path="url(#clip0_441_280)">
<path d="M11.3985 4.67416C11.3985 4.57865 11.4262 4.50562 11.4816 4.45506C11.5426 4.39888 11.6203 4.37079 11.7145 4.37079H14.8666C14.9886 4.37079 15.0801 4.39607 15.141 4.44663C15.202 4.49719 15.2325 4.5618 15.2325 4.64045C15.2325 4.73034 15.2104 4.80618 15.166 4.86798C15.1216 4.92416 15.044 4.97472 14.9331 5.01966L14.6919 5.09551C14.5034 5.16854 14.3177 5.29214 14.1347 5.46629C13.9573 5.64045 13.7743 5.85674 13.5858 6.11517C13.4028 6.36798 13.2115 6.65169 13.0119 6.96629L8.35451 14.382C8.27689 14.5 8.21035 14.6152 8.15491 14.7275C8.10501 14.8399 8.05788 14.9635 8.01352 15.0983L7.84718 15.6882C7.80837 15.8286 7.74461 15.9438 7.6559 16.0337C7.56718 16.1236 7.44243 16.1685 7.28164 16.1685H5.63491C5.4852 16.1685 5.37709 16.118 5.31055 16.0169C5.24956 15.9101 5.24402 15.7725 5.29392 15.6039L5.49352 14.8876C5.53233 14.764 5.55174 14.6348 5.55174 14.5C5.55174 14.3652 5.54897 14.2416 5.54342 14.1292C5.54897 14.0056 5.55174 13.7921 5.55174 13.4888C5.55174 13.1854 5.55174 12.823 5.55174 12.4017C5.55174 11.9747 5.55174 11.5169 5.55174 11.0281C5.55174 10.5337 5.54897 10.0309 5.54342 9.51966C5.54342 9.00842 5.54065 8.51404 5.53511 8.03651C5.53511 7.55899 5.53233 7.12359 5.52679 6.73034C5.52679 6.33708 5.52402 6.01124 5.51847 5.75281C5.51847 5.55056 5.49352 5.39607 5.44362 5.28933C5.39372 5.18258 5.30501 5.11236 5.17748 5.07865L4.79491 4.97753C4.71173 4.94944 4.65074 4.91011 4.61193 4.85955C4.57312 4.80899 4.55371 4.74719 4.55371 4.67416C4.55371 4.58427 4.59252 4.51124 4.67015 4.45506C4.75331 4.39888 4.84758 4.37079 4.95293 4.37079H8.92006C9.01986 4.37079 9.09471 4.39607 9.14461 4.44663C9.19451 4.49157 9.21946 4.55618 9.21946 4.64045C9.21946 4.73034 9.19451 4.80337 9.14461 4.85955C9.10025 4.91573 9.03095 4.95506 8.93669 4.97753L8.31293 5.09551C8.14659 5.1236 8.02738 5.21067 7.9553 5.35674C7.88322 5.49719 7.84718 5.70225 7.84718 5.97191C7.84164 6.23034 7.8361 6.55618 7.83055 6.94944C7.83055 7.34269 7.83055 7.7809 7.83055 8.26404C7.83055 8.74719 7.83055 9.26123 7.83055 9.80618C7.83055 10.3455 7.82778 10.8989 7.82223 11.4663C7.82223 12.0281 7.81946 12.5871 7.81392 13.1433C7.81392 13.6938 7.81114 14.2219 7.8056 14.7275L7.15689 15.0646L12.2884 6.83146C12.4824 6.52247 12.5878 6.25 12.6044 6.01405C12.621 5.77809 12.5767 5.58146 12.4713 5.42416C12.366 5.26685 12.2163 5.15449 12.0222 5.08708L11.6646 4.97753C11.4872 4.89888 11.3985 4.79775 11.3985 4.67416ZM12.8481 12.6545C12.8481 12.6545 12.9479 12.6208 13.1475 12.5534C13.3526 12.4803 13.6132 12.3904 13.9293 12.2837C14.2508 12.1713 14.5918 12.0506 14.9522 11.9213C15.3182 11.7921 15.6702 11.6685 16.0085 11.5506C16.3467 11.4326 16.6322 11.3343 16.8651 11.2556L16.6405 11.5169C16.696 11.3483 16.7403 11.1517 16.7736 10.927C16.8124 10.6966 16.8318 10.4326 16.8318 10.1348C16.8318 9.77528 16.7681 9.48595 16.6405 9.26685C16.513 9.04213 16.3384 8.92977 16.1166 8.92977C15.8948 8.92977 15.6675 9.01685 15.4346 9.19101C15.2073 9.36517 14.991 9.61236 14.7859 9.93258C14.5863 10.2528 14.4144 10.6348 14.2702 11.0786C14.1261 11.5169 14.0263 12.0028 13.9708 12.5365C13.8932 13.3736 13.9958 14.0084 14.2786 14.441C14.5669 14.8736 15.0049 15.0899 15.5926 15.0899C15.9142 15.0899 16.2192 15.0281 16.5075 14.9045C16.7958 14.7809 17.0592 14.6011 17.2976 14.3652C17.5415 14.1236 17.7467 13.8286 17.913 13.4803C17.9962 13.368 18.0655 13.2921 18.1209 13.2528C18.1819 13.2135 18.2485 13.1966 18.3205 13.2022C18.4037 13.2022 18.4675 13.2416 18.5118 13.3202C18.5617 13.3933 18.5645 13.5084 18.5201 13.6657C18.376 14.1657 18.1293 14.6208 17.7799 15.0309C17.4306 15.4354 16.9843 15.7584 16.4409 16C15.8976 16.236 15.2572 16.3539 14.5198 16.3539C13.8489 16.3539 13.2944 16.2247 12.8564 15.9663C12.4184 15.7079 12.1051 15.3371 11.9166 14.8539C11.7281 14.3708 11.6643 13.7893 11.7253 13.1095C11.7863 12.4522 11.9498 11.8343 12.216 11.2556C12.4821 10.677 12.8287 10.1685 13.2556 9.73033C13.6825 9.28651 14.1677 8.94101 14.711 8.69382C15.2544 8.44101 15.831 8.3146 16.4409 8.3146C16.9289 8.3146 17.3308 8.4073 17.6469 8.59269C17.9685 8.77809 18.2097 9.02528 18.3704 9.33427C18.5368 9.64326 18.6283 9.98314 18.6449 10.3539C18.656 10.4438 18.6809 10.5197 18.7198 10.5815C18.7586 10.6433 18.8168 10.677 18.8944 10.6826C18.9609 10.6882 19.0108 10.7079 19.0441 10.7416C19.0774 10.7753 19.094 10.8202 19.094 10.8764C19.094 10.9494 19.0635 11.0197 19.0025 11.0871C18.9415 11.1545 18.8251 11.2135 18.6532 11.264C18.4702 11.3258 18.2041 11.4157 17.8548 11.5337C17.5055 11.6461 17.1146 11.7753 16.6821 11.9213C16.2497 12.0618 15.8116 12.2051 15.3681 12.3511C14.93 12.4972 14.5253 12.632 14.1538 12.7556C13.7823 12.8736 13.4829 12.9719 13.2556 13.0506C13.0283 13.1236 12.9146 13.1601 12.9146 13.1601L12.8481 12.6545ZM25.8883 9.58708L24.7572 9.73033C24.7406 9.48876 24.6768 9.30056 24.566 9.16573C24.4551 9.02528 24.261 8.95505 23.9838 8.95505C23.6788 8.95505 23.3767 9.05618 23.0772 9.25842C22.7778 9.46067 22.4923 9.73314 22.2206 10.0758C21.9545 10.4185 21.7133 10.8062 21.497 11.2388C21.2864 11.6657 21.1145 12.1124 20.9814 12.5786C20.8539 13.0449 20.7818 13.5 20.7652 13.9438C20.7319 14.4382 20.7846 14.7865 20.9232 14.9888C21.0618 15.191 21.2475 15.2921 21.4804 15.2921C21.6634 15.2921 21.8685 15.2135 22.0959 15.0562C22.3232 14.8989 22.5561 14.6742 22.7945 14.382C23.0384 14.0899 23.2658 13.7416 23.4765 13.3371C23.6871 12.927 23.8646 12.4691 24.0087 11.9635L25.6139 6.41854C25.8523 5.57584 26.2182 4.96348 26.7117 4.58146C27.2107 4.19382 27.8123 4 28.5165 4C28.9988 4 29.3565 4.09831 29.5893 4.29494C29.8278 4.48596 29.947 4.71348 29.947 4.97753C29.947 5.25281 29.8666 5.48034 29.7058 5.66011C29.545 5.83427 29.3149 5.92135 29.0155 5.92135C28.8325 5.92135 28.6662 5.88483 28.5165 5.8118C28.3723 5.73315 28.2365 5.64607 28.1089 5.55056C27.9814 5.44944 27.8539 5.36236 27.7264 5.28933C27.5988 5.21629 27.463 5.17978 27.3188 5.17978C27.1137 5.17978 26.939 5.26124 26.7949 5.42416C26.6507 5.58146 26.5703 5.77809 26.5537 6.01405C26.5537 6.14888 26.5814 6.28371 26.6369 6.41854C26.6978 6.55337 26.7671 6.69663 26.8448 6.84831C26.9224 6.99438 26.9917 7.1573 27.0527 7.33708C27.1192 7.51123 27.158 7.71067 27.1691 7.93539C27.1858 8.15449 27.1553 8.4073 27.0776 8.69382L25.5889 13.927C25.4669 14.3652 25.4226 14.6685 25.4559 14.8371C25.4891 15.0056 25.5778 15.0899 25.722 15.0899C25.8163 15.0899 25.9161 15.059 26.0214 14.9972C26.1268 14.9298 26.257 14.809 26.4123 14.6348C26.4955 14.5562 26.562 14.5084 26.6119 14.4916C26.6618 14.4747 26.7117 14.4775 26.7616 14.5C26.817 14.5281 26.8448 14.5843 26.8448 14.6685C26.8448 14.7472 26.8143 14.8511 26.7533 14.9803C26.6036 15.2556 26.4123 15.4972 26.1794 15.7051C25.9466 15.9073 25.686 16.0646 25.3976 16.177C25.1093 16.2949 24.8071 16.3539 24.4911 16.3539C24.1141 16.3539 23.8368 16.264 23.6594 16.0843C23.4875 15.9045 23.4016 15.6517 23.4016 15.3258C23.4016 15.1685 23.4182 14.986 23.4515 14.7781C23.4848 14.5702 23.5402 14.3146 23.6178 14.0112C23.6955 13.7079 23.7953 13.3399 23.9172 12.9073L24.1584 13.0169C23.8535 13.7528 23.4986 14.3708 23.0939 14.8708C22.6947 15.3652 22.2705 15.736 21.8214 15.9831C21.3723 16.2303 20.9149 16.3539 20.4491 16.3539C20.0111 16.3539 19.6396 16.2584 19.3347 16.0674C19.0353 15.8708 18.819 15.5758 18.686 15.1826C18.5529 14.7893 18.5168 14.2949 18.5778 13.6994C18.6388 13.0084 18.8246 12.3427 19.1351 11.7022C19.4456 11.0618 19.8503 10.4888 20.3493 9.98314C20.8539 9.47191 21.425 9.07022 22.0626 8.77809C22.7002 8.48033 23.3739 8.33146 24.0836 8.33146C24.4883 8.33146 24.821 8.38764 25.0816 8.5C25.3422 8.60674 25.539 8.75562 25.6721 8.94663C25.8052 9.13202 25.8772 9.3455 25.8883 9.58708Z" fill="white"/>
<path d="M9.60976 21.9406L8.47867 22.0839C8.46203 21.8423 8.39827 21.6541 8.28738 21.5192C8.17649 21.3788 7.98243 21.3086 7.7052 21.3086C7.40025 21.3086 7.09807 21.4097 6.79867 21.6119C6.49926 21.8142 6.21372 22.0867 5.94203 22.4294C5.67589 22.7721 5.43471 23.1597 5.21847 23.5923C5.00778 24.0192 4.83589 24.4659 4.70282 24.9322C4.5753 25.3985 4.50322 25.8535 4.48659 26.2973C4.45332 26.7917 4.50599 27.14 4.64461 27.3423C4.78322 27.5445 4.96896 27.6456 5.20183 27.6456C5.3848 27.6456 5.58995 27.567 5.81728 27.4097C6.04461 27.2524 6.27748 27.0277 6.51589 26.7355C6.75985 26.4434 6.98718 26.0951 7.19787 25.6906C7.40857 25.2805 7.58599 24.8226 7.73015 24.317L9.3353 18.7721C9.57372 17.9294 9.93966 17.317 10.4331 16.935C10.9321 16.5473 11.5337 16.3535 12.2379 16.3535C12.7203 16.3535 13.0779 16.4518 13.3107 16.6485C13.5492 16.8395 13.6684 17.067 13.6684 17.331C13.6684 17.6063 13.588 17.8339 13.4272 18.0136C13.2664 18.1878 13.0363 18.2749 12.7369 18.2749C12.5539 18.2749 12.3876 18.2383 12.2379 18.1653C12.0937 18.0867 11.9579 17.9996 11.8303 17.9041C11.7028 17.803 11.5753 17.7159 11.4478 17.6428C11.3203 17.5698 11.1844 17.5333 11.0403 17.5333C10.8351 17.5333 10.6604 17.6148 10.5163 17.7777C10.3721 17.935 10.2917 18.1316 10.2751 18.3676C10.2751 18.5024 10.3028 18.6372 10.3583 18.7721C10.4193 18.9069 10.4886 19.0501 10.5662 19.2018C10.6438 19.3479 10.7131 19.5108 10.7741 19.6906C10.8406 19.8648 10.8795 20.0642 10.8905 20.2889C10.9072 20.508 10.8767 20.7608 10.7991 21.0473L9.31035 26.2805C9.18837 26.7187 9.14401 27.0221 9.17728 27.1906C9.21055 27.3591 9.29926 27.4434 9.44342 27.4434C9.53768 27.4434 9.63748 27.4125 9.74282 27.3507C9.84817 27.2833 9.97847 27.1625 10.1337 26.9883C10.2169 26.9097 10.2834 26.8619 10.3333 26.8451C10.3832 26.8282 10.4331 26.831 10.483 26.8535C10.5385 26.8816 10.5662 26.9378 10.5662 27.0221C10.5662 27.1007 10.5357 27.2046 10.4747 27.3339C10.325 27.6091 10.1337 27.8507 9.90084 28.0586C9.66797 28.2608 9.40738 28.4181 9.11906 28.5305C8.83075 28.6485 8.52857 28.7074 8.21253 28.7074C7.8355 28.7074 7.55827 28.6176 7.38084 28.4378C7.20896 28.258 7.12302 28.0052 7.12302 27.6794C7.12302 27.5221 7.13966 27.3395 7.17292 27.1316C7.20619 26.9237 7.26164 26.6681 7.33926 26.3647C7.41688 26.0614 7.51669 25.6934 7.63867 25.2608L7.87985 25.3704C7.5749 26.1063 7.22005 26.7243 6.8153 27.2243C6.41609 27.7187 5.99193 28.0895 5.54282 28.3367C5.09372 28.5839 4.63629 28.7074 4.17055 28.7074C3.73253 28.7074 3.36104 28.6119 3.05609 28.4209C2.75669 28.2243 2.54045 27.9294 2.40738 27.5361C2.27431 27.1428 2.23827 26.6485 2.29926 26.053C2.36025 25.3619 2.54599 24.6962 2.85649 24.0558C3.16698 23.4153 3.57174 22.8423 4.07075 22.3367C4.5753 21.8254 5.14639 21.4237 5.78401 21.1316C6.42164 20.8339 7.0953 20.685 7.805 20.685C8.20976 20.685 8.54243 20.7412 8.80302 20.8535C9.06362 20.9603 9.26045 21.1091 9.39352 21.3001C9.52659 21.4855 9.59867 21.699 9.60976 21.9406ZM11.6944 25.008C11.6944 25.008 11.7942 24.9743 11.9938 24.9069C12.199 24.8339 12.4596 24.744 12.7756 24.6372C13.0972 24.5249 13.4382 24.4041 13.7986 24.2749C14.1645 24.1456 14.5166 24.0221 14.8548 23.9041C15.193 23.7861 15.4786 23.6878 15.7115 23.6091L15.4869 23.8704C15.5423 23.7018 15.5867 23.5052 15.62 23.2805C15.6588 23.0501 15.6782 22.7861 15.6782 22.4883C15.6782 22.1288 15.6144 21.8395 15.4869 21.6204C15.3594 21.3956 15.1847 21.2833 14.9629 21.2833C14.7412 21.2833 14.5138 21.3704 14.281 21.5445C14.0536 21.7187 13.8374 21.9659 13.6322 22.2861C13.4326 22.6063 13.2608 22.9883 13.1166 23.4322C12.9724 23.8704 12.8726 24.3563 12.8172 24.89C12.7396 25.7271 12.8421 26.3619 13.1249 26.7945C13.4132 27.2271 13.8513 27.4434 14.439 27.4434C14.7606 27.4434 15.0655 27.3816 15.3538 27.258C15.6421 27.1344 15.9055 26.9546 16.1439 26.7187C16.3879 26.4771 16.593 26.1822 16.7594 25.8339C16.8425 25.7215 16.9119 25.6456 16.9673 25.6063C17.0283 25.567 17.0948 25.5501 17.1669 25.5558C17.2501 25.5558 17.3138 25.5951 17.3582 25.6737C17.4081 25.7468 17.4109 25.8619 17.3665 26.0192C17.2223 26.5192 16.9756 26.9743 16.6263 27.3844C16.277 27.7889 15.8307 28.1119 15.2873 28.3535C14.7439 28.5895 14.1035 28.7074 13.3661 28.7074C12.6952 28.7074 12.1408 28.5782 11.7027 28.3198C11.2647 28.0614 10.9515 27.6906 10.7629 27.2074C10.5744 26.7243 10.5107 26.1428 10.5717 25.4631C10.6326 24.8058 10.7962 24.1878 11.0623 23.6091C11.3285 23.0305 11.675 22.5221 12.102 22.0839C12.5289 21.64 13.014 21.2945 13.5574 21.0473C14.1008 20.7945 14.6774 20.6681 15.2873 20.6681C15.7752 20.6681 16.1772 20.7608 16.4932 20.9462C16.8148 21.1316 17.056 21.3788 17.2168 21.6878C17.3831 21.9968 17.4746 22.3367 17.4913 22.7074C17.5023 22.7973 17.5273 22.8732 17.5661 22.935C17.6049 22.9968 17.6631 23.0305 17.7408 23.0361C17.8073 23.0417 17.8572 23.0614 17.8905 23.0951C17.9237 23.1288 17.9404 23.1737 17.9404 23.2299C17.9404 23.303 17.9099 23.3732 17.8489 23.4406C17.7879 23.508 17.6715 23.567 17.4996 23.6176C17.3166 23.6794 17.0505 23.7692 16.7012 23.8872C16.3519 23.9996 15.961 24.1288 15.5285 24.2749C15.096 24.4153 14.658 24.5586 14.2144 24.7046C13.7764 24.8507 13.3717 24.9855 13.0002 25.1091C12.6287 25.2271 12.3293 25.3254 12.102 25.4041C11.8746 25.4771 11.761 25.5136 11.761 25.5136L11.6944 25.008ZM24.7525 17.0277C24.7525 16.9322 24.7802 16.8591 24.8357 16.8086C24.8966 16.7524 24.9743 16.7243 25.0685 16.7243H28.2206C28.3426 16.7243 28.4341 16.7496 28.4951 16.8001C28.5561 16.8507 28.5865 16.9153 28.5865 16.994C28.5865 17.0839 28.5644 17.1597 28.52 17.2215C28.4757 17.2777 28.398 17.3282 28.2871 17.3732L28.046 17.449C27.8574 17.5221 27.6717 17.6456 27.4887 17.8198C27.3113 17.994 27.1283 18.2103 26.9398 18.4687C26.7568 18.7215 26.5656 19.0052 26.366 19.3198L21.7085 26.7355C21.6309 26.8535 21.5644 26.9687 21.5089 27.081C21.459 27.1934 21.4119 27.317 21.3675 27.4518L21.2012 28.0417C21.1624 28.1822 21.0986 28.2973 21.0099 28.3872C20.9212 28.4771 20.7964 28.5221 20.6357 28.5221H18.9889C18.8392 28.5221 18.7311 28.4715 18.6646 28.3704C18.6036 28.2636 18.598 28.126 18.6479 27.9574L18.8475 27.2412C18.8864 27.1176 18.9058 26.9883 18.9058 26.8535C18.9058 26.7187 18.903 26.5951 18.8974 26.4827C18.903 26.3591 18.9058 26.1456 18.9058 25.8423C18.9058 25.5389 18.9058 25.1765 18.9058 24.7552C18.9058 24.3282 18.9058 23.8704 18.9058 23.3816C18.9058 22.8872 18.903 22.3844 18.8974 21.8732C18.8974 21.3619 18.8947 20.8676 18.8891 20.39C18.8891 19.9125 18.8863 19.4771 18.8808 19.0839C18.8808 18.6906 18.878 18.3648 18.8725 18.1063C18.8725 17.9041 18.8475 17.7496 18.7976 17.6428C18.7477 17.5361 18.659 17.4659 18.5315 17.4322L18.1489 17.331C18.0658 17.303 18.0048 17.2636 17.966 17.2131C17.9271 17.1625 17.9077 17.1007 17.9077 17.0277C17.9077 16.9378 17.9465 16.8648 18.0242 16.8086C18.1073 16.7524 18.2016 16.7243 18.3069 16.7243H22.2741C22.3739 16.7243 22.4487 16.7496 22.4986 16.8001C22.5485 16.8451 22.5735 16.9097 22.5735 16.994C22.5735 17.0839 22.5485 17.1569 22.4986 17.2131C22.4543 17.2692 22.385 17.3086 22.2907 17.331L21.6669 17.449C21.5006 17.4771 21.3814 17.5642 21.3093 17.7103C21.2372 17.8507 21.2012 18.0558 21.2012 18.3254C21.1957 18.5839 21.1901 18.9097 21.1846 19.303C21.1846 19.6962 21.1846 20.1344 21.1846 20.6176C21.1846 21.1007 21.1846 21.6148 21.1846 22.1597C21.1846 22.699 21.1818 23.2524 21.1762 23.8198C21.1762 24.3816 21.1735 24.9406 21.1679 25.4968C21.1679 26.0473 21.1652 26.5754 21.1596 27.081L20.5109 27.4181L25.6424 19.185C25.8364 18.876 25.9418 18.6035 25.9584 18.3676C25.9751 18.1316 25.9307 17.935 25.8254 17.7777C25.72 17.6204 25.5703 17.508 25.3762 17.4406L25.0186 17.331C24.8412 17.2524 24.7525 17.1513 24.7525 17.0277Z" fill="white"/>
</g>
<defs>
<clipPath id="clip0_441_280">
<rect width="28" height="25" fill="white" transform="translate(2 4)"/>
</clipPath>
</defs>
</svg>
