<svg width="598" height="599" viewBox="0 0 598 599" fill="none" xmlns="http://www.w3.org/2000/svg">
<path d="M1.10742 272.5C14.7549 120.018 142.872 0.5 298.905 0.5C454.937 0.5 583.055 120.018 596.702 272.5" stroke="black" stroke-opacity="0.07"/>
<path d="M597.31 318.5C587.988 467.162 470.031 586.36 321.904 597.629" stroke="black" stroke-opacity="0.07"/>
<path d="M275.904 597.629C127.778 586.36 9.82037 467.162 0.498047 318.5" stroke="black" stroke-opacity="0.07"/>
<path d="M58.1992 299.5C58.1992 166.562 165.966 57.542 298.904 57.542C431.841 57.542 539.608 166.562 539.608 299.5C539.608 432.438 431.841 541.458 298.904 541.458C165.966 541.458 58.1992 432.438 58.1992 299.5Z" fill="url(#paint0_radial_407_261)"/>
<path d="M66.9766 296.993C66.9766 168.902 170.814 65.064 298.905 65.064C426.996 65.064 530.834 168.902 530.834 296.993C530.834 425.084 426.996 528.921 298.905 528.921C170.814 528.921 66.9766 425.084 66.9766 296.993Z" fill="url(#paint1_radial_407_261)"/>
<path d="M95.8105 291.978C95.8105 181.196 185.616 91.3911 296.398 91.3911C407.179 91.3911 496.985 181.196 496.985 291.978C496.985 402.76 407.179 492.565 296.398 492.565C185.616 492.565 95.8105 402.76 95.8105 291.978Z" fill="url(#paint2_radial_407_261)"/>
<g clip-path="url(#paint3_angular_407_261_clip_path)" data-figma-skip-parse="true"><g transform="matrix(0 0.18805 -0.18805 0 298.679 294.934)"><foreignObject x="-1005.32" y="-1005.32" width="2010.64" height="2010.64"><div xmlns="http://www.w3.org/1999/xhtml" style="background:conic-gradient(from 90deg,rgba(173, 173, 173, 0.9836) 0deg,rgba(252, 252, 252, 0.9008) 21.1681deg,rgba(255, 255, 255, 0.8281) 33.861deg,rgba(248, 248, 248, 0.6298) 57.4116deg,rgba(198, 198, 198, 1) 67.1149deg,rgba(247, 247, 247, 0.593) 87.5105deg,rgba(245, 245, 245, 0.5469) 106.074deg,rgba(246, 246, 246, 0.5676) 117.926deg,rgba(246, 246, 246, 0.6139) 167.508deg,rgba(255, 255, 255, 1) 199.44deg,rgba(212, 212, 212, 1) 251.757deg,rgba(184, 184, 184, 1) 287.475deg,rgba(175, 175, 175, 1) 333.789deg,rgba(157, 157, 157, 1) 355.808deg,rgba(173, 173, 173, 0.9836) 360deg);height:100%;width:100%;opacity:1"></div></foreignObject></g></g><path d="M110.629 294.933C110.629 191.077 194.822 106.883 298.68 106.883C402.536 106.883 486.73 191.077 486.73 294.933C486.73 398.791 402.536 482.983 298.68 482.983C194.822 482.983 110.629 398.791 110.629 294.933Z" data-figma-gradient-fill="{&#34;type&#34;:&#34;GRADIENT_ANGULAR&#34;,&#34;stops&#34;:[{&#34;color&#34;:{&#34;r&#34;:0.99179267883300781,&#34;g&#34;:0.99179267883300781,&#34;b&#34;:0.99179267883300781,&#34;a&#34;:0.90082812309265137},&#34;position&#34;:0.058800276368856430},{&#34;color&#34;:{&#34;r&#34;:1.0,&#34;g&#34;:1.0,&#34;b&#34;:1.0,&#34;a&#34;:0.8281250},&#34;position&#34;:0.094058327376842499},{&#34;color&#34;:{&#34;r&#34;:0.97355073690414429,&#34;g&#34;:0.97355073690414429,&#34;b&#34;:0.97355073690414429,&#34;a&#34;:0.62975525856018066},&#34;position&#34;:0.15947677195072174},{&#34;color&#34;:{&#34;r&#34;:0.77916663885116577,&#34;g&#34;:0.77916663885116577,&#34;b&#34;:0.77916663885116577,&#34;a&#34;:1.0},&#34;position&#34;:0.18643021583557129},{&#34;color&#34;:{&#34;r&#34;:0.96865326166152954,&#34;g&#34;:0.96865326166152954,&#34;b&#34;:0.96865326166152954,&#34;a&#34;:0.59302443265914917},&#34;position&#34;:0.24308457970619202},{&#34;color&#34;:{&#34;r&#34;:0.96249997615814209,&#34;g&#34;:0.96249997615814209,&#34;b&#34;:0.96249997615814209,&#34;a&#34;:0.5468750},&#34;position&#34;:0.29464882612228394},{&#34;color&#34;:{&#34;r&#34;:0.96526545286178589,&#34;g&#34;:0.96526545286178589,&#34;b&#34;:0.96526545286178589,&#34;a&#34;:0.56761622428894043},&#34;position&#34;:0.32757231593132019},{&#34;color&#34;:{&#34;r&#34;:0.96805101633071899,&#34;g&#34;:0.96805101633071899,&#34;b&#34;:0.96805101633071899,&#34;a&#34;:0.61394989490509033},&#34;position&#34;:0.46529868245124817},{&#34;color&#34;:{&#34;r&#34;:1.0,&#34;g&#34;:1.0,&#34;b&#34;:1.0,&#34;a&#34;:1.0},&#34;position&#34;:0.55400007963180542},{&#34;color&#34;:{&#34;r&#34;:0.83333331346511841,&#34;g&#34;:0.83333331346511841,&#34;b&#34;:0.83333331346511841,&#34;a&#34;:1.0},&#34;position&#34;:0.69932591915130615},{&#34;color&#34;:{&#34;r&#34;:0.72500002384185791,&#34;g&#34;:0.72500002384185791,&#34;b&#34;:0.72500002384185791,&#34;a&#34;:1.0},&#34;position&#34;:0.79854100942611694},{&#34;color&#34;:{&#34;r&#34;:0.68627452850341797,&#34;g&#34;:0.68627452850341797,&#34;b&#34;:0.68627452850341797,&#34;a&#34;:1.0},&#34;position&#34;:0.92719060182571411},{&#34;color&#34;:{&#34;r&#34;:0.61666667461395264,&#34;g&#34;:0.61666667461395264,&#34;b&#34;:0.61666667461395264,&#34;a&#34;:1.0},&#34;position&#34;:0.98835498094558716}],&#34;stopsVar&#34;:[{&#34;color&#34;:{&#34;r&#34;:0.99179267883300781,&#34;g&#34;:0.99179267883300781,&#34;b&#34;:0.99179267883300781,&#34;a&#34;:0.90082812309265137},&#34;position&#34;:0.058800276368856430},{&#34;color&#34;:{&#34;r&#34;:1.0,&#34;g&#34;:1.0,&#34;b&#34;:1.0,&#34;a&#34;:0.8281250},&#34;position&#34;:0.094058327376842499},{&#34;color&#34;:{&#34;r&#34;:0.97355073690414429,&#34;g&#34;:0.97355073690414429,&#34;b&#34;:0.97355073690414429,&#34;a&#34;:0.62975525856018066},&#34;position&#34;:0.15947677195072174},{&#34;color&#34;:{&#34;r&#34;:0.77916663885116577,&#34;g&#34;:0.77916663885116577,&#34;b&#34;:0.77916663885116577,&#34;a&#34;:1.0},&#34;position&#34;:0.18643021583557129},{&#34;color&#34;:{&#34;r&#34;:0.96865326166152954,&#34;g&#34;:0.96865326166152954,&#34;b&#34;:0.96865326166152954,&#34;a&#34;:0.59302443265914917},&#34;position&#34;:0.24308457970619202},{&#34;color&#34;:{&#34;r&#34;:0.96249997615814209,&#34;g&#34;:0.96249997615814209,&#34;b&#34;:0.96249997615814209,&#34;a&#34;:0.5468750},&#34;position&#34;:0.29464882612228394},{&#34;color&#34;:{&#34;r&#34;:0.96526545286178589,&#34;g&#34;:0.96526545286178589,&#34;b&#34;:0.96526545286178589,&#34;a&#34;:0.56761622428894043},&#34;position&#34;:0.32757231593132019},{&#34;color&#34;:{&#34;r&#34;:0.96805101633071899,&#34;g&#34;:0.96805101633071899,&#34;b&#34;:0.96805101633071899,&#34;a&#34;:0.61394989490509033},&#34;position&#34;:0.46529868245124817},{&#34;color&#34;:{&#34;r&#34;:1.0,&#34;g&#34;:1.0,&#34;b&#34;:1.0,&#34;a&#34;:1.0},&#34;position&#34;:0.55400007963180542},{&#34;color&#34;:{&#34;r&#34;:0.83333331346511841,&#34;g&#34;:0.83333331346511841,&#34;b&#34;:0.83333331346511841,&#34;a&#34;:1.0},&#34;position&#34;:0.69932591915130615},{&#34;color&#34;:{&#34;r&#34;:0.72500002384185791,&#34;g&#34;:0.72500002384185791,&#34;b&#34;:0.72500002384185791,&#34;a&#34;:1.0},&#34;position&#34;:0.79854100942611694},{&#34;color&#34;:{&#34;r&#34;:0.68627452850341797,&#34;g&#34;:0.68627452850341797,&#34;b&#34;:0.68627452850341797,&#34;a&#34;:1.0},&#34;position&#34;:0.92719060182571411},{&#34;color&#34;:{&#34;r&#34;:0.61666667461395264,&#34;g&#34;:0.61666667461395264,&#34;b&#34;:0.61666667461395264,&#34;a&#34;:1.0},&#34;position&#34;:0.98835498094558716}],&#34;transform&#34;:{&#34;m00&#34;:2.3029523099171549e-14,&#34;m01&#34;:-376.10061645507812,&#34;m02&#34;:486.72949218750,&#34;m10&#34;:376.10055541992188,&#34;m11&#34;:2.3029519711039760e-14,&#34;m12&#34;:106.88336181640625},&#34;opacity&#34;:1.0,&#34;blendMode&#34;:&#34;NORMAL&#34;,&#34;visible&#34;:true}"/>
<g style="mix-blend-mode:luminosity" opacity="0.5">
<path d="M110.629 294.933C110.629 191.077 194.822 106.883 298.68 106.883C402.536 106.883 486.73 191.077 486.73 294.933C486.73 398.791 402.536 482.983 298.68 482.983C194.822 482.983 110.629 398.791 110.629 294.933Z" fill="black"/>
</g>
<path d="M390.799 148.313L376.156 169.225L370.479 165.25L381.461 149.565L381.338 149.48L374.848 149.013L378.222 144.193L385.571 144.652L390.799 148.313Z" fill="black"/>
<path d="M445.308 394.379L440.705 391.585L432.223 374.423L434.758 370.246L440.896 373.971L439.448 376.358L444.079 385.642L444.249 385.745L452.112 372.786L456.717 375.58L445.308 394.379ZM455.16 385.834L450.343 382.91L448.418 381.568L433.412 372.462L436.775 366.92L458.6 380.165L455.16 385.834Z" fill="black"/>
<path d="M422.303 214.089L426.284 211.087L438.308 213.952C439.106 214.141 439.823 214.278 440.458 214.361C441.104 214.446 441.696 214.437 442.232 214.334C442.774 214.239 443.284 214.011 443.762 213.651C444.286 213.255 444.649 212.805 444.851 212.3C445.058 211.801 445.113 211.281 445.017 210.739C444.928 210.192 444.691 209.663 444.306 209.152C443.92 208.64 443.477 208.267 442.977 208.031C442.481 207.8 441.954 207.73 441.395 207.817C440.837 207.904 440.273 208.164 439.702 208.594L435.741 203.337C437.175 202.258 438.652 201.649 440.173 201.512C441.692 201.377 443.174 201.685 444.617 202.44C446.06 203.194 447.376 204.362 448.566 205.941C449.797 207.573 450.599 209.184 450.975 210.775C451.363 212.366 451.33 213.842 450.879 215.203C450.431 216.57 449.574 217.731 448.306 218.686C447.523 219.276 446.62 219.701 445.598 219.962C444.584 220.217 443.29 220.276 441.72 220.138C440.149 220 438.132 219.642 435.667 219.065L432.634 218.352L432.514 218.443L438.515 226.407L434.096 229.738L422.303 214.089Z" fill="black"/>
<path d="M377.695 452.274C375.955 453.179 374.252 453.678 372.585 453.768C370.92 453.847 369.419 453.546 368.082 452.865C366.75 452.181 365.711 451.139 364.964 449.739L370.935 446.63C371.364 447.401 371.989 447.866 372.814 448.027C373.645 448.184 374.467 448.053 375.278 447.63C375.905 447.304 376.387 446.883 376.728 446.369C377.065 445.846 377.242 445.267 377.259 444.631C377.274 443.996 377.107 443.351 376.758 442.699C376.42 442.032 375.989 441.526 375.462 441.181C374.932 440.83 374.359 440.646 373.742 440.63C373.12 440.607 372.497 440.757 371.87 441.085C371.221 441.422 370.703 441.893 370.316 442.498C369.931 443.092 369.754 443.731 369.783 444.419L363.835 446.166L358.227 433.233L373.441 425.313L375.997 430.223L365.825 435.518L367.984 440.746L368.117 440.677C368.113 439.807 368.43 438.921 369.066 438.018C369.698 437.109 370.589 436.355 371.739 435.757C373.088 435.055 374.452 434.741 375.832 434.82C377.22 434.894 378.507 435.324 379.694 436.111C380.885 436.887 381.852 437.996 382.593 439.437C383.422 441.011 383.774 442.607 383.652 444.226C383.533 445.834 382.973 447.339 381.97 448.742C380.963 450.137 379.538 451.315 377.695 452.274Z" fill="black"/>
<path d="M201.199 442.861L219.252 429.887L219.321 429.754L208.883 424.32L211.439 419.411L228.246 428.16L225.69 433.07L207.524 446.154L201.199 442.861Z" fill="black"/>
<path d="M141.798 382.449C140.691 380.712 139.972 378.987 139.64 377.277C139.314 375.573 139.363 374.033 139.788 372.659C140.218 371.292 141.014 370.239 142.178 369.496C143.068 368.93 144.022 368.633 145.039 368.605C146.061 368.585 147.054 368.799 148.02 369.248C148.993 369.692 149.846 370.336 150.58 371.179L150.749 371.072C150.178 369.711 150.078 368.356 150.449 367.005C150.832 365.659 151.623 364.603 152.822 363.839C153.95 363.12 155.18 362.839 156.512 362.996C157.85 363.148 159.167 363.684 160.462 364.603C161.757 365.522 162.909 366.773 163.918 368.358C164.927 369.941 165.571 371.517 165.85 373.083C166.135 374.645 166.064 376.066 165.637 377.343C165.216 378.616 164.445 379.61 163.324 380.324C162.118 381.092 160.823 381.356 159.438 381.114C158.052 380.874 156.871 380.218 155.893 379.146L155.724 379.254C156.173 380.268 156.394 381.31 156.386 382.379C156.384 383.445 156.158 384.435 155.708 385.353C155.258 386.271 154.588 387.013 153.698 387.579C152.534 388.32 151.24 388.594 149.815 388.398C148.394 388.21 146.978 387.603 145.568 386.58C144.162 385.565 142.905 384.188 141.798 382.449ZM145.835 379.878C146.188 380.431 146.613 380.851 147.109 381.136C147.606 381.42 148.129 381.561 148.677 381.555C149.238 381.553 149.767 381.394 150.264 381.077C150.762 380.759 151.123 380.352 151.348 379.854C151.577 379.363 151.664 378.835 151.609 378.268C151.561 377.698 151.36 377.136 151.008 376.582C150.659 376.036 150.235 375.617 149.734 375.325C149.244 375.036 148.726 374.888 148.18 374.881C147.638 374.881 147.118 375.04 146.621 375.357C146.123 375.675 145.756 376.081 145.52 376.576C145.288 377.079 145.193 377.616 145.234 378.192C145.286 378.769 145.487 379.332 145.835 379.878ZM155.045 374.011C155.357 374.501 155.736 374.871 156.18 375.12C156.625 375.369 157.095 375.488 157.591 375.478C158.086 375.468 158.559 375.32 159.007 375.034C159.456 374.748 159.783 374.387 159.988 373.951C160.2 373.511 160.283 373.038 160.238 372.534C160.2 372.026 160.025 371.527 159.713 371.037C159.405 370.553 159.026 370.183 158.577 369.928C158.14 369.674 157.677 369.55 157.188 369.557C156.706 369.558 156.241 369.701 155.792 369.987C155.344 370.272 155.01 370.639 154.791 371.084C154.579 371.524 154.488 372 154.519 372.513C154.562 373.028 154.737 373.527 155.045 374.011Z" fill="black"/>
<path d="M143.264 200.966L163.918 215.972L159.844 221.578L144.354 210.324L144.266 210.446L143.686 216.927L138.926 213.468L139.513 206.129L143.264 200.966ZM174.099 203.146C172.73 205.016 171.119 206.322 169.266 207.061C167.414 207.801 165.409 207.952 163.252 207.515C161.094 207.077 158.885 206.032 156.624 204.378C154.357 202.721 152.696 200.949 151.641 199.064C150.592 197.171 150.147 195.245 150.307 193.287C150.472 191.321 151.235 189.4 152.598 187.525C153.961 185.648 155.555 184.332 157.38 183.572C159.199 182.809 161.17 182.633 163.294 183.046C165.418 183.459 167.611 184.492 169.871 186.145C172.151 187.801 173.832 189.587 174.915 191.504C175.998 193.421 176.473 195.374 176.343 197.365C176.21 199.343 175.462 201.27 174.099 203.146ZM169.54 199.833C170.244 198.866 170.317 197.706 169.757 196.355C169.196 194.992 167.828 193.525 165.651 191.954C164.232 190.924 162.97 190.222 161.864 189.849C160.758 189.478 159.809 189.384 159.017 189.568C158.219 189.749 157.585 190.161 157.116 190.807C156.413 191.775 156.33 192.922 156.867 194.247C157.404 195.572 158.73 197.013 160.845 198.57C162.285 199.627 163.575 200.354 164.715 200.75C165.848 201.141 166.817 201.25 167.622 201.075C168.432 200.893 169.072 200.479 169.54 199.833Z" fill="black"/>
<path d="M199.753 143.952L214.398 164.865L208.72 168.84L197.738 153.155L197.615 153.241L194.957 159.181L191.582 154.361L194.526 147.613L199.753 143.952ZM214.3 133.767L228.943 154.679L223.265 158.655L212.283 142.971L212.161 143.056L209.502 148.996L206.127 144.176L209.072 137.428L214.3 133.767Z" fill="black"/>
<path d="M302.439 113.151H291.156V140.732H302.439V113.151Z" fill="black"/>
<path d="M322.535 111.037L318.795 110.644L317.484 123.112L321.225 123.505L322.535 111.037Z" fill="#232323"/>
<path d="M341.527 114.738L337.855 113.924L335.129 126.224L338.801 127.038L341.527 114.738Z" fill="#232323"/>
<path d="M359.557 120.403L356.012 119.147L351.745 131.196L355.29 132.451L359.557 120.403Z" fill="#232323"/>
<path d="M376.586 127.54L373.191 125.921L367.781 137.265L371.175 138.884L376.586 127.54Z" fill="#232323"/>
<path d="M302.439 444.12H291.156V471.7H302.439V444.12Z" fill="black"/>
<g filter="url(#filter0_i_407_261)">
<path d="M286.367 500.087C286.367 499.395 286.929 498.833 287.621 498.833H305.172C305.864 498.833 306.426 499.395 306.426 500.087V528.295L303.919 541.458H288.875L286.367 528.295V500.087Z" fill="black"/>
</g>
<g filter="url(#filter1_i_407_261)">
<path d="M185.931 466.061C186.286 465.467 187.056 465.271 187.65 465.626L202.729 474.607C203.325 474.961 203.519 475.731 203.166 476.326L188.731 500.561L179.841 510.587L166.916 502.889L171.498 490.296L185.931 466.061Z" fill="black"/>
</g>
<g filter="url(#filter2_i_407_261)">
<path d="M108.989 387.929C109.574 387.558 110.348 387.731 110.719 388.315L120.124 403.135C120.495 403.719 120.321 404.494 119.737 404.865L101.423 416.486L91.4241 419.862L83.3633 407.16L90.6756 399.55L108.989 387.929Z" fill="black"/>
</g>
<g filter="url(#filter3_i_407_261)">
<path d="M481.987 388.706C481.403 388.335 480.628 388.508 480.257 389.092L470.853 403.912C470.482 404.496 470.655 405.271 471.24 405.642L489.553 417.264L499.552 420.64L507.613 407.937L500.301 400.328L481.987 388.706Z" fill="black"/>
</g>
<g filter="url(#filter4_i_407_261)">
<path d="M86.2773 283.229C86.9696 283.214 87.5424 283.764 87.5568 284.456L87.9217 302.004C87.9361 302.696 87.3866 303.269 86.6943 303.283L67.6749 303.679L58.5647 301.359L58.252 286.319L67.2579 283.624L86.2773 283.229Z" fill="black"/>
</g>
<g filter="url(#filter5_i_407_261)">
<path d="M131.328 167.297C131.912 167.668 132.085 168.443 131.714 169.027L122.303 183.843C121.932 184.427 121.157 184.6 120.573 184.229L103.784 173.564L97.1543 166.382L105.221 153.684L114.539 156.632L131.328 167.297Z" fill="black"/>
</g>
<g filter="url(#filter6_i_407_261)">
<path d="M472.493 180.225C471.908 180.596 471.735 181.37 472.107 181.955L481.517 196.77C481.889 197.355 482.663 197.528 483.248 197.157L500.036 186.492L506.666 179.309L498.6 166.611L489.281 169.56L472.493 180.225Z" fill="black"/>
</g>
<g filter="url(#filter7_i_407_261)">
<path d="M195.317 108.376C195.729 108.933 195.611 109.718 195.055 110.13L180.95 120.575C180.393 120.987 179.608 120.87 179.197 120.313L169.45 107.152L166.777 99.3288L178.867 90.376L185.571 95.2148L195.317 108.376Z" fill="black"/>
</g>
<g filter="url(#filter8_i_407_261)">
<path d="M305.241 83.6834C305.243 84.3758 304.683 84.9385 303.991 84.9404L286.439 84.9862C285.747 84.9881 285.184 84.4282 285.183 83.7358L285.137 66.055L287.621 57.5882L302.666 57.5488L305.195 66.0024L305.241 83.6834Z" fill="black"/>
</g>
<g filter="url(#filter9_i_407_261)">
<path d="M411.641 120.51C411.252 121.083 410.472 121.233 409.9 120.844L395.372 110.994C394.799 110.606 394.65 109.826 395.039 109.253L406.903 91.7551L414.595 84.8804L427.046 93.3231L423.506 103.012L411.641 120.51Z" fill="black"/>
</g>
<g filter="url(#filter10_i_407_261)">
<path d="M509.702 302.412C509.01 302.407 508.452 301.842 508.457 301.15L508.584 283.6C508.587 282.907 509.153 282.35 509.846 282.355L529.739 282.498L539.171 285.073L539.063 300.116L529.595 302.555L509.702 302.412Z" fill="black"/>
</g>
<g filter="url(#filter11_i_407_261)">
<path d="M384.727 481.554C384.41 480.939 384.652 480.183 385.268 479.866L400.87 471.827C401.485 471.51 402.241 471.752 402.558 472.367L415.629 497.737L418.002 510.117L412.988 513.251L407.973 516.385L397.798 506.923L384.727 481.554Z" fill="black"/>
</g>
<path d="M117.525 286.157V297.44H145.106V286.157H117.525Z" fill="black"/>
<path d="M448.494 286.157V297.44H476.075V286.157H448.494Z" fill="black"/>
<path d="M436.135 402.949L438.445 399.981L428.553 392.279L426.243 395.247L436.135 402.949Z" fill="#232323"/>
<path d="M422.954 417.117L425.586 414.43L416.586 405.615L413.954 408.302L422.954 417.117Z" fill="#232323"/>
<path d="M408.619 429.428L411.559 427.082L403.585 417.092L400.646 419.438L408.619 429.428Z" fill="#232323"/>
<path d="M393.56 440.112L396.729 438.086L389.958 427.497L386.789 429.523L393.56 440.112Z" fill="#232323"/>
<path d="M361.859 456.799L365.268 455.209L359.968 443.848L356.56 445.438L361.859 456.799Z" fill="#232323"/>
<path d="M343.674 463.411L347.24 462.218L343.242 450.271L339.675 451.465L343.674 463.411Z" fill="#232323"/>
<path d="M325.303 467.842L328.988 467.092L326.439 454.567L322.753 455.317L325.303 467.842Z" fill="#232323"/>
<path d="M307.03 470.497L310.773 470.136L309.568 457.625L305.824 457.986L307.03 470.497Z" fill="#232323"/>
<path d="M273.749 470.862L277.488 471.265L278.833 458.801L275.094 458.397L273.749 470.862Z" fill="#232323"/>
<path d="M254.766 467.109L258.436 467.933L261.196 455.641L257.527 454.817L254.766 467.109Z" fill="#232323"/>
<path d="M236.753 461.395L240.295 462.66L244.595 450.623L241.053 449.358L236.753 461.395Z" fill="#232323"/>
<path d="M219.745 454.21L223.135 455.839L228.577 444.51L225.187 442.881L219.745 454.21Z" fill="#232323"/>
<path d="M409.877 148.22L406.842 145.998L399.436 156.114L402.471 158.335L409.877 148.22Z" fill="#232323"/>
<path d="M424.428 160.974L421.664 158.423L413.119 167.68L415.883 170.231L424.428 160.974Z" fill="#232323"/>
<path d="M437.159 174.939L434.727 172.071L424.977 180.337L427.41 183.205L437.159 174.939Z" fill="#232323"/>
<path d="M448.285 189.675L446.166 186.567L435.782 193.649L437.901 196.756L448.285 189.675Z" fill="#232323"/>
<path d="M227.858 128.809L224.543 130.586L230.466 141.636L233.781 139.859L227.858 128.809Z" fill="#232323"/>
<path d="M245.649 121.197L242.154 122.587L246.811 134.293L250.306 132.902L245.649 121.197Z" fill="#232323"/>
<path d="M263.743 115.749L260.105 116.703L263.348 129.067L266.986 128.113L263.743 115.749Z" fill="#232323"/>
<path d="M281.839 112.082L278.121 112.651L280.021 125.075L283.739 124.506L281.839 112.082Z" fill="#232323"/>
<path d="M166.369 171.845L163.82 174.611L173.084 183.149L175.633 180.383L166.369 171.845Z" fill="#232323"/>
<path d="M180.326 159.104L177.459 161.539L185.732 171.282L188.599 168.848L180.326 159.104Z" fill="#232323"/>
<path d="M119.987 270.725L119.693 274.475L132.192 275.452L132.485 271.702L119.987 270.725Z" fill="#232323"/>
<path d="M123.179 251.64L122.463 255.332L134.831 257.73L135.547 254.037L123.179 251.64Z" fill="#232323"/>
<path d="M128.362 233.467L127.201 237.045L139.359 240.989L140.52 237.411L128.362 233.467Z" fill="#232323"/>
<path d="M133.469 217.206L131.941 220.643L143.426 225.749L144.954 222.313L133.469 217.206Z" fill="#232323"/>
<path d="M131.955 361.918L133.502 365.347L144.93 360.191L143.383 356.763L131.955 361.918Z" fill="#232323"/>
<path d="M125.574 343.651L126.723 347.232L138.719 343.385L137.57 339.804L125.574 343.651Z" fill="#232323"/>
<path d="M121.375 325.225L122.078 328.92L134.634 326.529L133.931 322.834L121.375 325.225Z" fill="#232323"/>
<path d="M118.952 306.922L119.266 310.67L131.79 309.623L131.477 305.875L118.952 306.922Z" fill="#232323"/>
<path d="M189.289 434.929L192.254 437.242L199.966 427.358L197.001 425.045L189.289 434.929Z" fill="#232323"/>
<path d="M175.134 421.734L177.818 424.368L186.643 415.377L183.959 412.743L175.134 421.734Z" fill="#232323"/>
<path d="M162.837 407.384L165.18 410.326L175.178 402.363L172.835 399.421L162.837 407.384Z" fill="#232323"/>
<path d="M152.169 392.314L154.191 395.485L164.787 388.725L162.765 385.554L152.169 392.314Z" fill="#232323"/>
<path d="M478.309 312.527L478.633 308.78L466.143 307.7L465.819 311.447L478.309 312.527Z" fill="#232323"/>
<path d="M474.959 331.586L475.705 327.899L463.357 325.4L462.611 329.087L474.959 331.586Z" fill="#232323"/>
<path d="M469.629 349.716L470.818 346.148L458.693 342.105L457.503 345.673L469.629 349.716Z" fill="#232323"/>
<path d="M462.807 366.873L464.363 363.449L452.921 358.248L451.365 361.672L462.807 366.873Z" fill="#232323"/>
<path d="M464.558 220.594L462.941 217.198L451.621 222.585L453.237 225.981L464.558 220.594Z" fill="#232323"/>
<path d="M471.309 238.728L470.088 235.17L458.172 239.261L459.394 242.819L471.309 238.728Z" fill="#232323"/>
<path d="M475.884 257.063L475.105 253.384L462.601 256.03L463.379 259.71L475.884 257.063Z" fill="#232323"/>
<path d="M478.679 275.314L478.289 271.573L465.788 272.876L466.178 276.617L478.679 275.314Z" fill="#232323"/>
<defs>
<clipPath id="paint3_angular_407_261_clip_path"><path d="M110.629 294.933C110.629 191.077 194.822 106.883 298.68 106.883C402.536 106.883 486.73 191.077 486.73 294.933C486.73 398.791 402.536 482.983 298.68 482.983C194.822 482.983 110.629 398.791 110.629 294.933Z"/></clipPath><filter id="filter0_i_407_261" x="286.367" y="498.833" width="22.0586" height="45.6245" filterUnits="userSpaceOnUse" color-interpolation-filters="sRGB">
<feFlood flood-opacity="0" result="BackgroundImageFix"/>
<feBlend mode="normal" in="SourceGraphic" in2="BackgroundImageFix" result="shape"/>
<feColorMatrix in="SourceAlpha" type="matrix" values="0 0 0 0 0 0 0 0 0 0 0 0 0 0 0 0 0 0 127 0" result="hardAlpha"/>
<feOffset dx="2" dy="3"/>
<feGaussianBlur stdDeviation="3.5"/>
<feComposite in2="hardAlpha" operator="arithmetic" k2="-1" k3="1"/>
<feColorMatrix type="matrix" values="0 0 0 0 1 0 0 0 0 1 0 0 0 0 1 0 0 0 0.25 0"/>
<feBlend mode="normal" in2="shape" result="effect1_innerShadow_407_261"/>
</filter>
<filter id="filter1_i_407_261" x="166.916" y="465.449" width="38.4258" height="48.1372" filterUnits="userSpaceOnUse" color-interpolation-filters="sRGB">
<feFlood flood-opacity="0" result="BackgroundImageFix"/>
<feBlend mode="normal" in="SourceGraphic" in2="BackgroundImageFix" result="shape"/>
<feColorMatrix in="SourceAlpha" type="matrix" values="0 0 0 0 0 0 0 0 0 0 0 0 0 0 0 0 0 0 127 0" result="hardAlpha"/>
<feOffset dx="2" dy="3"/>
<feGaussianBlur stdDeviation="3.5"/>
<feComposite in2="hardAlpha" operator="arithmetic" k2="-1" k3="1"/>
<feColorMatrix type="matrix" values="0 0 0 0 1 0 0 0 0 1 0 0 0 0 1 0 0 0 0.25 0"/>
<feBlend mode="normal" in2="shape" result="effect1_innerShadow_407_261"/>
</filter>
<filter id="filter2_i_407_261" x="83.3633" y="387.733" width="38.9551" height="35.1289" filterUnits="userSpaceOnUse" color-interpolation-filters="sRGB">
<feFlood flood-opacity="0" result="BackgroundImageFix"/>
<feBlend mode="normal" in="SourceGraphic" in2="BackgroundImageFix" result="shape"/>
<feColorMatrix in="SourceAlpha" type="matrix" values="0 0 0 0 0 0 0 0 0 0 0 0 0 0 0 0 0 0 127 0" result="hardAlpha"/>
<feOffset dx="2" dy="3"/>
<feGaussianBlur stdDeviation="3.5"/>
<feComposite in2="hardAlpha" operator="arithmetic" k2="-1" k3="1"/>
<feColorMatrix type="matrix" values="0 0 0 0 1 0 0 0 0 1 0 0 0 0 1 0 0 0 0.25 0"/>
<feBlend mode="normal" in2="shape" result="effect1_innerShadow_407_261"/>
</filter>
<filter id="filter3_i_407_261" x="470.658" y="388.511" width="38.9551" height="35.1289" filterUnits="userSpaceOnUse" color-interpolation-filters="sRGB">
<feFlood flood-opacity="0" result="BackgroundImageFix"/>
<feBlend mode="normal" in="SourceGraphic" in2="BackgroundImageFix" result="shape"/>
<feColorMatrix in="SourceAlpha" type="matrix" values="0 0 0 0 0 0 0 0 0 0 0 0 0 0 0 0 0 0 127 0" result="hardAlpha"/>
<feOffset dx="2" dy="3"/>
<feGaussianBlur stdDeviation="3.5"/>
<feComposite in2="hardAlpha" operator="arithmetic" k2="-1" k3="1"/>
<feColorMatrix type="matrix" values="0 0 0 0 1 0 0 0 0 1 0 0 0 0 1 0 0 0 0.25 0"/>
<feBlend mode="normal" in2="shape" result="effect1_innerShadow_407_261"/>
</filter>
<filter id="filter4_i_407_261" x="58.252" y="283.229" width="31.6699" height="23.4502" filterUnits="userSpaceOnUse" color-interpolation-filters="sRGB">
<feFlood flood-opacity="0" result="BackgroundImageFix"/>
<feBlend mode="normal" in="SourceGraphic" in2="BackgroundImageFix" result="shape"/>
<feColorMatrix in="SourceAlpha" type="matrix" values="0 0 0 0 0 0 0 0 0 0 0 0 0 0 0 0 0 0 127 0" result="hardAlpha"/>
<feOffset dx="2" dy="3"/>
<feGaussianBlur stdDeviation="3.5"/>
<feComposite in2="hardAlpha" operator="arithmetic" k2="-1" k3="1"/>
<feColorMatrix type="matrix" values="0 0 0 0 1 0 0 0 0 1 0 0 0 0 1 0 0 0 0.25 0"/>
<feBlend mode="normal" in2="shape" result="effect1_innerShadow_407_261"/>
</filter>
<filter id="filter5_i_407_261" x="97.1543" y="153.684" width="36.7559" height="33.7407" filterUnits="userSpaceOnUse" color-interpolation-filters="sRGB">
<feFlood flood-opacity="0" result="BackgroundImageFix"/>
<feBlend mode="normal" in="SourceGraphic" in2="BackgroundImageFix" result="shape"/>
<feColorMatrix in="SourceAlpha" type="matrix" values="0 0 0 0 0 0 0 0 0 0 0 0 0 0 0 0 0 0 127 0" result="hardAlpha"/>
<feOffset dx="2" dy="3"/>
<feGaussianBlur stdDeviation="3.5"/>
<feComposite in2="hardAlpha" operator="arithmetic" k2="-1" k3="1"/>
<feColorMatrix type="matrix" values="0 0 0 0 1 0 0 0 0 1 0 0 0 0 1 0 0 0 0.25 0"/>
<feBlend mode="normal" in2="shape" result="effect1_innerShadow_407_261"/>
</filter>
<filter id="filter6_i_407_261" x="471.91" y="166.611" width="36.7559" height="33.7407" filterUnits="userSpaceOnUse" color-interpolation-filters="sRGB">
<feFlood flood-opacity="0" result="BackgroundImageFix"/>
<feBlend mode="normal" in="SourceGraphic" in2="BackgroundImageFix" result="shape"/>
<feColorMatrix in="SourceAlpha" type="matrix" values="0 0 0 0 0 0 0 0 0 0 0 0 0 0 0 0 0 0 127 0" result="hardAlpha"/>
<feOffset dx="2" dy="3"/>
<feGaussianBlur stdDeviation="3.5"/>
<feComposite in2="hardAlpha" operator="arithmetic" k2="-1" k3="1"/>
<feColorMatrix type="matrix" values="0 0 0 0 1 0 0 0 0 1 0 0 0 0 1 0 0 0 0.25 0"/>
<feBlend mode="normal" in2="shape" result="effect1_innerShadow_407_261"/>
</filter>
<filter id="filter7_i_407_261" x="166.777" y="90.376" width="30.7852" height="33.4453" filterUnits="userSpaceOnUse" color-interpolation-filters="sRGB">
<feFlood flood-opacity="0" result="BackgroundImageFix"/>
<feBlend mode="normal" in="SourceGraphic" in2="BackgroundImageFix" result="shape"/>
<feColorMatrix in="SourceAlpha" type="matrix" values="0 0 0 0 0 0 0 0 0 0 0 0 0 0 0 0 0 0 127 0" result="hardAlpha"/>
<feOffset dx="2" dy="3"/>
<feGaussianBlur stdDeviation="3.5"/>
<feComposite in2="hardAlpha" operator="arithmetic" k2="-1" k3="1"/>
<feColorMatrix type="matrix" values="0 0 0 0 1 0 0 0 0 1 0 0 0 0 1 0 0 0 0.25 0"/>
<feBlend mode="normal" in2="shape" result="effect1_innerShadow_407_261"/>
</filter>
<filter id="filter8_i_407_261" x="285.137" y="57.5488" width="22.1035" height="30.4375" filterUnits="userSpaceOnUse" color-interpolation-filters="sRGB">
<feFlood flood-opacity="0" result="BackgroundImageFix"/>
<feBlend mode="normal" in="SourceGraphic" in2="BackgroundImageFix" result="shape"/>
<feColorMatrix in="SourceAlpha" type="matrix" values="0 0 0 0 0 0 0 0 0 0 0 0 0 0 0 0 0 0 127 0" result="hardAlpha"/>
<feOffset dx="2" dy="3"/>
<feGaussianBlur stdDeviation="3.5"/>
<feComposite in2="hardAlpha" operator="arithmetic" k2="-1" k3="1"/>
<feColorMatrix type="matrix" values="0 0 0 0 1 0 0 0 0 1 0 0 0 0 1 0 0 0 0.25 0"/>
<feBlend mode="normal" in2="shape" result="effect1_innerShadow_407_261"/>
</filter>
<filter id="filter9_i_407_261" x="394.822" y="84.8804" width="34.2246" height="39.1802" filterUnits="userSpaceOnUse" color-interpolation-filters="sRGB">
<feFlood flood-opacity="0" result="BackgroundImageFix"/>
<feBlend mode="normal" in="SourceGraphic" in2="BackgroundImageFix" result="shape"/>
<feColorMatrix in="SourceAlpha" type="matrix" values="0 0 0 0 0 0 0 0 0 0 0 0 0 0 0 0 0 0 127 0" result="hardAlpha"/>
<feOffset dx="2" dy="3"/>
<feGaussianBlur stdDeviation="3.5"/>
<feComposite in2="hardAlpha" operator="arithmetic" k2="-1" k3="1"/>
<feColorMatrix type="matrix" values="0 0 0 0 1 0 0 0 0 1 0 0 0 0 1 0 0 0 0.25 0"/>
<feBlend mode="normal" in2="shape" result="effect1_innerShadow_407_261"/>
</filter>
<filter id="filter10_i_407_261" x="508.457" y="282.355" width="32.7129" height="23.2002" filterUnits="userSpaceOnUse" color-interpolation-filters="sRGB">
<feFlood flood-opacity="0" result="BackgroundImageFix"/>
<feBlend mode="normal" in="SourceGraphic" in2="BackgroundImageFix" result="shape"/>
<feColorMatrix in="SourceAlpha" type="matrix" values="0 0 0 0 0 0 0 0 0 0 0 0 0 0 0 0 0 0 127 0" result="hardAlpha"/>
<feOffset dx="2" dy="3"/>
<feGaussianBlur stdDeviation="3.5"/>
<feComposite in2="hardAlpha" operator="arithmetic" k2="-1" k3="1"/>
<feColorMatrix type="matrix" values="0 0 0 0 1 0 0 0 0 1 0 0 0 0 1 0 0 0 0.25 0"/>
<feBlend mode="normal" in2="shape" result="effect1_innerShadow_407_261"/>
</filter>
<filter id="filter11_i_407_261" x="384.588" y="471.688" width="35.4141" height="47.6973" filterUnits="userSpaceOnUse" color-interpolation-filters="sRGB">
<feFlood flood-opacity="0" result="BackgroundImageFix"/>
<feBlend mode="normal" in="SourceGraphic" in2="BackgroundImageFix" result="shape"/>
<feColorMatrix in="SourceAlpha" type="matrix" values="0 0 0 0 0 0 0 0 0 0 0 0 0 0 0 0 0 0 127 0" result="hardAlpha"/>
<feOffset dx="2" dy="3"/>
<feGaussianBlur stdDeviation="3.5"/>
<feComposite in2="hardAlpha" operator="arithmetic" k2="-1" k3="1"/>
<feColorMatrix type="matrix" values="0 0 0 0 1 0 0 0 0 1 0 0 0 0 1 0 0 0 0.25 0"/>
<feBlend mode="normal" in2="shape" result="effect1_innerShadow_407_261"/>
</filter>
<radialGradient id="paint0_radial_407_261" cx="0" cy="0" r="1" gradientUnits="userSpaceOnUse" gradientTransform="translate(298.904 290.763) rotate(90) scale(250.695 249.396)">
<stop offset="0.848958" stop-color="#585858"/>
<stop offset="1"/>
</radialGradient>
<radialGradient id="paint1_radial_407_261" cx="0" cy="0" r="1" gradientUnits="userSpaceOnUse" gradientTransform="translate(298.905 288.617) rotate(90) scale(240.304 240.304)">
<stop offset="0.734375" stop-color="#393939"/>
<stop offset="1"/>
</radialGradient>
<radialGradient id="paint2_radial_407_261" cx="0" cy="0" r="1" gradientUnits="userSpaceOnUse" gradientTransform="translate(296.398 291.978) rotate(90) scale(204.47 204.47)">
<stop/>
<stop offset="0.713542" stop-color="#666666"/>
<stop offset="1" stop-color="#181818" stop-opacity="0.94"/>
</radialGradient>
</defs>
</svg>
