<svg width="108" height="67" viewBox="0 0 108 67" fill="none" xmlns="http://www.w3.org/2000/svg">
<path d="M21 56.334C21 62.133 16.299 66.834 10.5 66.834C4.701 66.834 0 62.133 0 56.334C0 50.535 4.701 45.834 10.5 45.834C16.299 45.834 21 50.535 21 56.334ZM9.095 56.334C9.095 57.11 9.724 57.739 10.5 57.739C11.275 57.739 11.904 57.11 11.904 56.334C11.904 55.559 11.275 54.93 10.5 54.93C9.724 54.93 9.095 55.559 9.095 56.334Z" fill="#1A1A1A"/>
<path d="M103.239 0L107.634 5.578L19.4348 61.058L10.3008 47.863L103.239 0Z" fill="#191919"/>
<path d="M100.353 2.75623C100.834 2.50023 101.467 2.65523 101.776 3.10323L103.459 5.54624C103.762 5.98724 103.644 6.55423 103.191 6.83323L28.7091 52.8022C28.2271 53.1002 27.5541 52.9582 27.2301 52.4902L22.2491 45.2942C21.9301 44.8332 22.0761 44.2362 22.5731 43.9732L100.353 2.75623Z" fill="#BCBCBC"/>
</svg>
