<svg width="84" height="64" viewBox="0 0 84 64" fill="none" xmlns="http://www.w3.org/2000/svg">
<path d="M0 4.57599L2.89401 0L72.249 45.284L65.014 55.242L0 4.57599Z" fill="black"/>
<path d="M10.3549 10.2053C9.94094 9.89025 9.83793 9.30925 10.1189 8.87025L10.5399 8.21424C10.8409 7.74424 11.4669 7.61125 11.9329 7.91825L53.9069 35.6032C54.3829 35.9172 54.5009 36.5653 54.1659 37.0263L52.9379 38.7162L51.6959 40.4242C51.3669 40.8782 50.7279 40.9722 50.2809 40.6322L10.3549 10.2053Z" fill="#BCBCBC"/>
<path d="M83.0859 51.1582C83.0859 58.0622 77.4889 63.6582 70.5859 63.6582C63.6819 63.6582 58.0859 58.0622 58.0859 51.1582C58.0859 44.2552 63.6819 38.6582 70.5859 38.6582C77.4889 38.6582 83.0859 44.2552 83.0859 51.1582ZM69.2009 51.1582C69.2009 51.9232 69.8209 52.5432 70.5859 52.5432C71.3499 52.5432 71.9699 51.9232 71.9699 51.1582C71.9699 50.3942 71.3499 49.7742 70.5859 49.7742C69.8209 49.7742 69.2009 50.3942 69.2009 51.1582Z" fill="black"/>
</svg>
